# xmcd CD database file
#
# Track frame offsets:
#	182
#	14207
#	27695
#	41695
#	54912
#	68520
#	80882
#	94682
#	110332
#	123580
#	137072
#	149482
#	162707
#	176057
#
# Disc length: 2543 seconds
#
# Revision: 0
# Processed by: cddbd v1.4PL0 Copyright (c) Steve Scherf et al.
# Submitted via: CDex 1.50
#
DISCID=d209ed0e
DTITLE=Various Artist - East Coast Blues 1924-1937
DYEAR=1991
DGENRE=Blues
TTITLE0=South Carolina Rag - Take 2 - Willie Walker (1930)
TTITLE1=Brownie Blues - Tarter and Gay (1928)
TTITLE2=Black Dog Blues - Bayless Rose (1930)
TTITLE3=Crow Jane - Carl Martin (1935)
TTITLE4=Blind Arthur's Breakdown - Blind Blake (1929)
TTITLE5=Original Blues - Bayless Rose (1930)
TTITLE6=Unknown Blues - Tarter and Gay (1928)
TTITLE7=Dupree Blues - Willie Walker (1930)
TTITLE8=Barbershop Rag - William Moore (1928)
TTITLE9=Pistol Blues - Bo Weavil Jackson (1926)
TTITLE10=Old Time Blues - Carl Martin (1935)
TTITLE11=Myrtle Avenue Stomp - Chicken Wilson and Skeeter Hinton (1928)
TTITLE12=Raggin' The Blues - William Moore (1928)
TTITLE13=D.C. Rag - Chicken Wilson and Skeeter Hinton (1928)
EXTD=YEAR: 1991
EXTT0=
EXTT1=
EXTT2=
EXTT3=
EXTT4=
EXTT5=
EXTT6=
EXTT7=
EXTT8=
EXTT9=
EXTT10=
EXTT11=
EXTT12=
EXTT13=
PLAYORDER=
